<?xml version="1.0" encoding="utf-8"?>
<!-- Generator: Adobe Illustrator 24.0.1, SVG Export Plug-In . SVG Version: 6.00 Build 0)  -->
<svg version="1.1" xmlns="http://www.w3.org/2000/svg" xmlns:xlink="http://www.w3.org/1999/xlink" x="0px" y="0px"
	 viewBox="0 0 252 144" style="enable-background:new 0 0 252 144;" xml:space="preserve">
<style type="text/css">
	.st0{fill:#353535;}
	.st1{fill:#FF0000;}
	.st2{display:none;}
	.st3{display:inline;}
	.st4{clip-path:url(#SVGID_2_);fill:#FFFFFF;}
	.st5{clip-path:url(#SVGID_2_);}
	.st6{clip-path:url(#SVGID_4_);fill:#FFFFFF;}
	.st7{fill:#FFFFFF;}
	.st8{fill:none;}
</style>
<g id="Layer_1">
	<rect y="0" class="st0" width="252" height="144"/>
	<rect y="122.7" class="st1" width="252" height="21.3"/>
</g>
<g id="Layer_2" class="st2">
	<g class="st3">
		<g>
			<defs>
				<rect id="SVGID_1_" x="195.5" y="38.2" width="50.6" height="54"/>
			</defs>
			<clipPath id="SVGID_2_">
				<use xlink:href="#SVGID_1_"  style="overflow:visible;"/>
			</clipPath>
			<rect x="210.2" y="63" class="st4" width="5.3" height="15.8"/>
			<g class="st5">
				<defs>
					<rect id="SVGID_3_" x="195.5" y="38.2" width="50.6" height="54"/>
				</defs>
				<clipPath id="SVGID_4_">
					<use xlink:href="#SVGID_3_"  style="overflow:visible;"/>
				</clipPath>
				<path class="st6" d="M218.1,63v15.8h5.3v-9.6c0,0,0.1-0.5,0.4-1.1c0.4-0.5,0.7-1.1,2-1.3c0.4-0.1,1.4-0.2,2.3,0.9
					c0.2,0.3,0.5,0.8,0.6,1.7c0.1,1,0,9.4,0,9.4h5.2v-9.9c0,0,0-3.7-2.9-5.5c-0.5-0.2-4.8-2.4-7.7,1.8V63H218.1z"/>
				<path class="st6" d="M212.6,55.4c0.6,0,1.6,0.1,2.3,0.8c0.5,0.5,0.7,1.1,0.8,1.8c0.1,0.9-0.2,2.3-2.1,2.8
					c-0.6,0.1-1.1,0.1-1.7,0c-0.5-0.1-1-0.4-1.4-1c-0.6-0.9-0.7-2.1-0.2-3c0.2-0.4,0.6-0.8,1.2-1.1
					C211.9,55.5,212.2,55.4,212.6,55.4"/>
			</g>
		</g>
	</g>
</g>
<g id="Layer_3" class="st2">
	<g class="st3">
		<polygon class="st0" points="235.9,96.4 228.3,102.8 235.9,111.4 		"/>
		<polygon class="st0" points="223.4,104.7 234.6,95.1 212.5,95.1 		"/>
		<polygon class="st0" points="210.9,111.4 218.6,102.9 210.9,96.4 		"/>
		<polygon class="st0" points="226.9,104.1 223.5,107.1 220,104.1 212.3,112.8 234.6,112.8 		"/>
		<path class="st7" d="M234.5,93.3h-3.9h-14.2h-3.9c-1.8,0-3.3,1.5-3.3,3.3v3.9v7.1v3.9c0,1.8,1.5,3.3,3.3,3.3h3.9h14.2h3.9
			c1.8,0,3.3-1.5,3.3-3.3v-3.9v-7.1v-3.9C237.7,94.8,236.3,93.3,234.5,93.3z M234.6,95.1l-11.2,9.5l-10.9-9.5H234.6z M235.9,96.4
			v15.1l-7.6-8.6L235.9,96.4z M218.6,102.9l-7.7,8.5V96.4L218.6,102.9z M212.3,112.8l7.7-8.8l3.5,3l3.4-3l7.7,8.8H212.3z"/>
	</g>
</g>
<g id="Layer_4" class="st2">
	<g class="st3">
		<path class="st8" d="M210.7,36.3L210.7,36.3c0,2.7,2.2,4.9,4.9,4.9h0C212.9,41.2,210.7,39,210.7,36.3z"/>
		<path class="st8" d="M215.6,20.4L215.6,20.4c-2.7,0-4.9,2.2-4.9,4.9v0C210.7,22.6,212.9,20.4,215.6,20.4z"/>
		<path class="st8" d="M226.1,41.2L226.1,41.2c2.7,0,4.9-2.2,4.9-4.9v0C231,39,228.8,41.2,226.1,41.2z"/>
		<path class="st8" d="M226.1,20.4L226.1,20.4c2.7,0,4.9,2.2,4.9,4.9v0C231,22.6,228.9,20.4,226.1,20.4z"/>
		<path class="st0" d="M220.7,26.6c-2.4,0-4.1,1.9-4.1,4.3s1.8,4.2,4.2,4.2s4.2-1.8,4.2-4.2S223.1,26.6,220.7,26.6z"/>
		<path class="st0" d="M226.1,20.4h-10.5c-2.7,0-4.9,2.2-4.9,4.9v11c0,2.7,2.2,4.9,4.9,4.9h10.5c2.7,0,4.9-2.2,4.9-4.9v-11
			C231,22.6,228.8,20.4,226.1,20.4z M220.9,37.2c-3.6,0-6.4-2.8-6.4-6.4s2.6-6.6,6.3-6.6s6.6,3,6.6,6.6S224.5,37.2,220.9,37.2z
			 M227.6,25.7c-0.9,0-1.5-0.7-1.5-1.5c0-0.9,0.7-1.5,1.5-1.5s1.5,0.7,1.5,1.5C229.1,25,228.4,25.7,227.6,25.7z"/>
		<path class="st7" d="M226.5,18.4H215c-3.7,0-6.8,3-6.8,6.8v11.5c0,3.7,3,6.8,6.8,6.8h11.5c3.7,0,6.8-3,6.8-6.8V25.2
			C233.3,21.4,230.3,18.4,226.5,18.4z M231,25.3v11v0c0,2.7-2.2,4.9-4.9,4.9h0h-10.5h0c-2.7,0-4.9-2.2-4.9-4.9v0v-11v0
			c0-2.7,2.2-4.9,4.9-4.9h0h10.5h0C228.9,20.4,231,22.6,231,25.3L231,25.3z"/>
		<path class="st7" d="M220.7,24.2c-3.6,0-6.3,3-6.3,6.6s2.8,6.4,6.4,6.4s6.4-2.8,6.4-6.4S224.4,24.2,220.7,24.2z M220.8,35.1
			c-2.4,0-4.2-1.8-4.2-4.2s1.7-4.3,4.1-4.3s4.3,1.9,4.3,4.3S223.2,35.1,220.8,35.1z"/>
		<circle class="st7" cx="227.6" cy="24.1" r="1.5"/>
	</g>
</g>
</svg>
