<?xml version="1.0" encoding="utf-8"?>
<!-- Generator: Adobe Illustrator 24.0.1, SVG Export Plug-In . SVG Version: 6.00 Build 0)  -->
<svg version="1.1" id="Layer_1" xmlns="http://www.w3.org/2000/svg" xmlns:xlink="http://www.w3.org/1999/xlink" x="0px" y="0px"
	 viewBox="0 0 252 145.9" style="enable-background:new 0 0 252 145.9;" xml:space="preserve">
<style type="text/css">
	.st0{fill:#353535;}
	.st1{fill:#FF0000;}
	.st2{fill:#FFFFFF;}
</style>
<rect class="st0" width="252" height="145.9"/>
<g>
	<path class="st1" d="M65.1,72.9c0,0,23.1-38.2,59.7-59.4c0,0,38.4,23.1,59.7,59.7c0,0-23.1,37.9-59.6,59.2
		C124.8,132.4,86.4,109.5,65.1,72.9z"/>
	<g>
		<g>
			<path class="st2" d="M91.2,74.6c2.9-3.4,5.5-6.7,7.9-9.9v-0.2c-1.4-0.9-2.8-2.3-4.3-4.2c-1.5-1.9-2.3-4.2-2.3-7.1
				c0-2.2,0.5-4.1,1.5-5.7c1-1.6,2.4-2.8,4.1-3.7c1.4-0.7,2.8-1.1,4.2-1.3c1.4-0.2,2.9-0.3,4.4-0.3c1.3,0,2.8,0,4.4,0.1
				c1.6,0,2.4,0.1,2.6,0.1c-0.1,7.1-0.1,12-0.1,14.7c0,2.7,0,4.5,0,5.5c0,5.1,0,9.4,0.1,12.8c0,3.4,0.1,5.7,0.1,6.9h-4.3
				c0-1.2,0-4.1,0.1-8.8c0-4.7,0-8.4,0-11.1c0-1.2,0-3.2,0-6.1c0-2.9,0-6.2-0.1-10c-0.2,0-0.4,0-0.7,0s-0.8,0-1.4,0
				c-0.9,0-2,0-3.1,0.1c-1.1,0.1-2.2,0.4-3.2,0.8c-1.2,0.5-2.2,1.3-2.9,2.4c-0.7,1.1-1.1,2.4-1.1,4c0,1.7,0.2,3,0.7,4
				c0.5,1,1,1.8,1.7,2.5c0.8,0.8,1.7,1.5,2.8,2.2c1.1,0.7,2,1.1,2.6,1.3l0,0.3C100,70.3,96.3,75,94,78c-2.3,3-3.7,4.7-4.1,5.2
				l-3.3-3.1C86.8,79.8,88.4,78,91.2,74.6z"/>
		</g>
	</g>
	<g>
		<g>
			<g>
				<path class="st2" d="M131.1,82.4c-0.2,0-1.3,0-3.5,0c-2.2,0-4.9,0-8.1,0c-2.2,0-4.3,0-6.1,0c-1.8,0-3.4,0-4.7,0
					c0-1.2,0.1-3.7,0.1-7.5c0-3.8,0-7.8,0-11.9c0-2.2,0-5.2,0-8.9c0-3.7-0.1-7.5-0.1-11.5c1.2,0,2.8,0,4.7,0c1.9,0,3.8,0,5.8,0
					c3.3,0,6.1,0,8.2,0c2.1,0,3.2,0,3.4,0v4.2c-0.2,0-1.3,0-3.3,0c-2,0-4.5,0-7.5,0c-1.3,0-2.6,0-3.9,0s-2.3,0-3,0
					c0,2.2,0,4.5-0.1,6.7s-0.1,4.4-0.1,6.3c0.8,0,1.7,0,2.8,0c1.1,0,2,0,2.9,0c3.1,0,5.8,0,8.3,0c2.4,0,3.7,0,3.9,0v4.1
					c-0.1,0-1.6,0-4.3,0c-2.7,0-5.3,0-7.5,0c-0.8,0-1.8,0-3,0s-2.1,0-2.9,0c0,3.8,0,6.8,0,9c0,2.2,0,4.1,0.1,5.6c1,0,2.3,0,3.8,0
					c1.5,0,3.1,0,4.8,0c2.6,0,4.8,0,6.6,0c1.8,0,2.8,0,3,0L131.1,82.4L131.1,82.4z"/>
			</g>
		</g>
	</g>
	<g>
		<g>
			<g>
				<path class="st2" d="M160.1,62.8c0,3.5-0.8,6.6-2.3,9.2s-3.5,4.8-5.9,6.4c-2.1,1.4-4.4,2.5-7,3.2c-2.6,0.7-5.5,1.1-8.7,1.1
					c-1.2,0-2.4,0-3.6-0.1c-1.2,0-1.8-0.1-1.9-0.1c0-0.1,0-2.4,0.1-6.9c0-4.5,0.1-8.7,0.1-12.7c0-2.1,0-4.9,0-8.2
					c0-3.3,0-7.4-0.1-12.2c0.2,0,1,0,2.4,0c1.4,0,2.2,0,2.3,0c3.6,0,6.8,0.4,9.6,1.1c2.8,0.7,5.3,1.9,7.5,3.5
					c2.6,1.8,4.4,4.1,5.7,6.7C159.5,56.4,160.1,59.4,160.1,62.8z M155.6,62.7c0-2.6-0.5-4.9-1.5-7c-1-2.1-2.5-3.9-4.6-5.4
					c-2-1.4-4.2-2.4-6.6-3c-2.4-0.6-4.6-0.8-6.5-0.8c-0.2,0-0.5,0-0.8,0c-0.3,0-0.5,0-0.6,0c0,3.1-0.1,5.7-0.1,7.8s0,3.7,0,4.9
					c0,0.9,0,2.9,0,6.1c0,3.2,0,7.7,0,13.3c0.2,0,0.5,0,0.7,0c0.2,0,0.4,0,0.7,0c2.3,0,4.6-0.3,6.8-0.9c2.3-0.6,4.2-1.4,5.8-2.5
					c2-1.3,3.6-3.1,4.8-5.1C155,68.1,155.6,65.6,155.6,62.7z"/>
			</g>
		</g>
	</g>
	<g>
		<g>
			<g>
				<path class="st2" d="M117.4,109.4c-0.1,0-0.8,0-1.9,0c-1.1,0-2.6,0-4.4,0c-1.2,0-2.3,0-3.3,0c-1.1,0-2,0-2.7,0c0-2,0-3.9,0.1-6
					c0-2,0-4,0-5.9c0-3.2,0-5.7,0-7.4c0-1.7,0-2.9,0-3.6h2.5c0,1.5,0,3.2,0,5.1c0,1.9,0,3.5,0,4.7c0,3,0,5.5,0,7.5c0,2,0,3.1,0,3.2
					c0.4,0,0.9,0,1.5,0c0.6,0,1.1,0,1.6,0c1.8,0,3.3,0,4.7,0c1.3,0,2,0,2.1,0L117.4,109.4L117.4,109.4z"/>
			</g>
		</g>
	</g>
	<g>
		<g>
			<path class="st2" d="M118.9,88.8h-2.6v-2.9h2.6V88.8z M118.8,109.4h-2.4c0-0.2,0-1.3,0-3.4c0-2.1,0-3.8,0-5.1c0-1.2,0-2.5,0-3.9
				s0-3.1-0.1-4.9h2.4c0,1.6,0,3.2-0.1,4.6c0,1.4,0,2.7,0,3.8c0,2.7,0,4.8,0,6.4C118.8,108.5,118.8,109.4,118.8,109.4z"/>
		</g>
	</g>
	<g>
		<g>
			<path class="st2" d="M128.8,109.4h-2.4c0-0.3,0-1.4,0-3.2c0-1.8,0-2.9,0-3.3c0-0.6,0-1.5,0-2.6c0-1.2,0-2,0-2.5
				c0-1.3-0.2-2.2-0.7-2.8c-0.4-0.6-1.1-0.9-2.1-0.9c-0.6,0-1.4,0.2-2.3,0.6c-0.9,0.4-1.8,0.9-2.7,1.6c0,0.1,0,0.8,0,2
				c0,1.2,0,2.4,0,3.4c0,1.3,0,2.9,0,4.8c0,1.9,0,2.8,0,2.9h-2.4c0-0.1,0-0.8,0-2.1c0-1.3,0-3.3,0-5.9c0-1.2,0-2.6,0-4.2
				c0-1.6,0-3.3-0.1-5.1h2.3l0,2l0,0c1.4-0.9,2.6-1.5,3.5-1.9c0.9-0.4,1.7-0.5,2.3-0.5c1.3,0,2.3,0.5,3.1,1.4
				c0.8,0.9,1.2,2.2,1.2,3.8c0,1.4,0,2.7,0,3.7c0,1,0,1.9,0,2.5c0,1,0,2.3,0,3.9C128.8,108.5,128.8,109.3,128.8,109.4z"/>
		</g>
	</g>
	<g>
		<g>
			<path class="st2" d="M142.7,100.1h-10.9c0,1.2,0.2,2.3,0.7,3.3c0.4,1,1.1,1.8,2,2.5c0.6,0.4,1.2,0.7,2,0.9s1.6,0.3,2.7,0.3
				c0.6,0,1.1,0,1.6,0c0.5,0,0.8-0.1,0.9-0.1l-0.3,2.3c-0.1,0-0.3,0-0.8,0.1c-0.4,0-1,0-1.6,0c-1.6,0-3-0.2-4.2-0.7
				c-1.2-0.5-2.2-1.1-2.9-2c-0.7-0.7-1.2-1.6-1.7-2.7s-0.7-2.3-0.7-3.6c0-1.3,0.2-2.5,0.5-3.5c0.3-1,0.9-2,1.5-2.9
				c0.6-0.8,1.3-1.4,2.2-1.8c0.9-0.4,1.8-0.6,2.7-0.6c0.9,0,1.8,0.2,2.5,0.5c0.7,0.3,1.3,0.8,1.9,1.5c0.6,0.7,1,1.6,1.3,2.7
				C142.6,97.4,142.7,98.6,142.7,100.1z M140.4,98.2c-0.2-1.4-0.6-2.5-1.3-3.3c-0.7-0.8-1.6-1.2-2.7-1.2c-1.1,0-2.1,0.4-2.8,1.2
				c-0.7,0.8-1.3,1.9-1.6,3.3L140.4,98.2L140.4,98.2z"/>
		</g>
	</g>
</g>
</svg>
