<?xml version="1.0" encoding="utf-8"?>
<!-- Generator: Adobe Illustrator 24.0.1, SVG Export Plug-In . SVG Version: 6.00 Build 0)  -->
<svg version="1.1" id="Layer_2" xmlns="http://www.w3.org/2000/svg" xmlns:xlink="http://www.w3.org/1999/xlink" x="0px" y="0px"
	 viewBox="0 0 377.1 342.6" style="enable-background:new 0 0 377.1 342.6;" xml:space="preserve">
<style type="text/css">
	.st0{fill:none;}
	.st1{fill:#353535;}
	.st2{fill:#FFFFFF;}
</style>
<g>
	<path class="st0" d="M152.2,183.1L152.2,183.1c0,7.3,5.9,13.3,13.3,13.3h0C158.1,196.3,152.2,190.4,152.2,183.1z"/>
	<path class="st0" d="M165.4,140.1L165.4,140.1c-7.3,0-13.3,5.9-13.3,13.3v0C152.2,146,158.1,140.1,165.4,140.1z"/>
	<path class="st0" d="M193.9,196.3L193.9,196.3c7.3,0,13.3-5.9,13.3-13.3v0C207.2,190.4,201.2,196.3,193.9,196.3z"/>
	<path class="st0" d="M193.9,140.1L193.9,140.1c7.3,0,13.3,5.9,13.3,13.3v0C207.2,146,201.2,140.1,193.9,140.1z"/>
	<path class="st1" d="M179.3,156.9c-6.5,0-11.1,5.2-11.1,11.7s4.9,11.4,11.4,11.4S191,175,191,168.6S185.7,156.9,179.3,156.9z"/>
	<path class="st1" d="M193.9,140.1h-28.4c-7.3,0-13.3,5.9-13.3,13.3v29.7c0,7.3,5.9,13.3,13.3,13.3h28.4c7.3,0,13.3-5.9,13.3-13.3
		v-29.7C207.2,146,201.2,140.1,193.9,140.1z M179.8,185.6c-9.8,0-17.4-7.5-17.4-17.3c0-9.8,7-17.8,16.9-17.8c9.8,0,17.8,8,17.8,17.8
		C197.1,178.1,189.6,185.6,179.8,185.6z M197.8,154.4c-2.3,0-4.2-1.9-4.2-4.2c0-2.3,1.9-4.2,4.2-4.2c2.3,0,4.2,1.9,4.2,4.2
		C202,152.5,200.1,154.4,197.8,154.4z"/>
	<path class="st2" d="M195,134.7h-31.1c-10.1,0-18.3,8.2-18.3,18.3v31.1c0,10.1,8.2,18.3,18.3,18.3H195c10.1,0,18.3-8.2,18.3-18.3
		V153C213.2,142.9,205,134.7,195,134.7z M207.2,153.4v29.7v0c0,7.3-5.9,13.3-13.3,13.3h0h-28.4h0c-7.3,0-13.3-5.9-13.3-13.3v0v-29.7
		v0c0-7.3,5.9-13.3,13.3-13.3h0h28.4h0C201.2,140.1,207.2,146,207.2,153.4L207.2,153.4z"/>
	<path class="st2" d="M179.3,150.4c-9.8,0-16.9,8-16.9,17.8c0,9.8,7.5,17.3,17.4,17.3c9.8,0,17.4-7.5,17.4-17.3
		C197.1,158.4,189.1,150.4,179.3,150.4z M179.6,179.9c-6.5,0-11.4-4.9-11.4-11.4s4.6-11.7,11.1-11.7s11.7,5.2,11.7,11.7
		S186,179.9,179.6,179.9z"/>
	<circle class="st2" cx="197.8" cy="150.2" r="4.2"/>
</g>
</svg>
