<?xml version="1.0" encoding="utf-8"?>
<!-- Generator: Adobe Illustrator 24.0.1, SVG Export Plug-In . SVG Version: 6.00 Build 0)  -->
<svg version="1.1" id="Layer_2" xmlns="http://www.w3.org/2000/svg" xmlns:xlink="http://www.w3.org/1999/xlink" x="0px" y="0px"
	 viewBox="0 0 117.2 144" style="enable-background:new 0 0 117.2 144;" xml:space="preserve">
<style type="text/css">
	.st0{clip-path:url(#SVGID_2_);fill:#FFFFFF;}
	.st1{clip-path:url(#SVGID_2_);}
	.st2{clip-path:url(#SVGID_4_);fill:#FFFFFF;}
</style>
<g>
	<g>
		<defs>
			<rect id="SVGID_1_" x="36.7" y="41.9" width="50.6" height="54"/>
		</defs>
		<clipPath id="SVGID_2_">
			<use xlink:href="#SVGID_1_"  style="overflow:visible;"/>
		</clipPath>
		<rect x="51.4" y="66.8" class="st0" width="5.3" height="15.8"/>
		<g class="st1">
			<defs>
				<rect id="SVGID_3_" x="36.7" y="41.9" width="50.6" height="54"/>
			</defs>
			<clipPath id="SVGID_4_">
				<use xlink:href="#SVGID_3_"  style="overflow:visible;"/>
			</clipPath>
			<path class="st2" d="M59.4,66.8v15.8h5.3V73c0,0,0.1-0.5,0.4-1.1c0.4-0.5,0.7-1.1,2-1.3c0.4-0.1,1.4-0.2,2.3,0.9
				c0.2,0.3,0.5,0.8,0.6,1.7c0.1,1,0,9.4,0,9.4h5.2v-9.9c0,0,0-3.7-2.9-5.5c-0.5-0.2-4.8-2.4-7.7,1.8v-2.2H59.4z"/>
			<path class="st2" d="M53.9,59.2c0.6,0,1.6,0.1,2.3,0.8c0.5,0.5,0.7,1.1,0.8,1.8c0.1,0.9-0.2,2.3-2.1,2.8c-0.6,0.1-1.1,0.1-1.7,0
				c-0.5-0.1-1-0.4-1.4-1c-0.6-0.9-0.7-2.1-0.2-3c0.2-0.4,0.6-0.8,1.2-1.1C53.1,59.2,53.5,59.2,53.9,59.2"/>
		</g>
	</g>
</g>
</svg>
