<?xml version="1.0" encoding="utf-8"?>
<!-- Generator: Adobe Illustrator 24.0.1, SVG Export Plug-In . SVG Version: 6.00 Build 0)  -->
<svg version="1.1" id="Layer_1" xmlns="http://www.w3.org/2000/svg" xmlns:xlink="http://www.w3.org/1999/xlink" x="0px" y="0px"
	 viewBox="0 0 390 220" style="enable-background:new 0 0 390 220;" xml:space="preserve">
<style type="text/css">
	.st0{fill:#FF0000;}
	.st1{fill:#FFFFFF;}
</style>
<path class="st0" d="M355.43,109.97c0,0-29.42,48.56-75.9,75.62c0,0-48.84-29.42-75.9-75.9c0,0,29.39-48.16,75.8-75.35
	C279.43,34.35,328.36,63.49,355.43,109.97z"/>
<g>
	<path class="st1" d="M238.38,128.41c3.64-4.31,6.99-8.49,10.04-12.54v-0.19c-1.73-1.16-3.57-2.94-5.52-5.33s-2.92-5.38-2.92-8.98
		c0-2.78,0.64-5.21,1.93-7.27c1.29-2.06,3.03-3.62,5.23-4.69c1.73-0.83,3.51-1.38,5.34-1.63c1.82-0.25,3.7-0.38,5.64-0.38
		c1.69,0,3.54,0.03,5.54,0.08c2,0.05,3.11,0.08,3.33,0.08c-0.11,9.04-0.17,15.27-0.17,18.68c0,3.42,0,5.76,0,7.03
		c0,6.51,0.02,11.94,0.07,16.31c0.04,4.37,0.08,7.31,0.1,8.83h-5.51c0.02-1.52,0.05-5.26,0.08-11.21
		c0.03-5.95,0.05-10.67,0.05-14.14c0-1.52,0-4.12-0.02-7.79c-0.01-3.67-0.04-7.92-0.08-12.73c-0.2,0-0.51-0.01-0.93-0.02
		c-0.42-0.01-1.04-0.02-1.84-0.02c-1.2,0-2.51,0.06-3.94,0.17c-1.42,0.11-2.78,0.45-4.07,1.01c-1.58,0.66-2.82,1.69-3.72,3.1
		s-1.35,3.08-1.35,5.04c0,2.13,0.31,3.83,0.92,5.09c0.61,1.27,1.33,2.33,2.15,3.19c0.96,0.99,2.14,1.91,3.54,2.76
		c1.4,0.85,2.53,1.4,3.37,1.65l0.03,0.34c-6.21,8.08-10.8,14.03-13.78,17.84c-2.98,3.81-4.72,6.01-5.21,6.59l-4.18-3.91
		C232.78,135.04,234.74,132.72,238.38,128.41z"/>
</g>
<g>
	<g>
		<path class="st1" d="M289.16,138.3c-0.2,0-1.68-0.01-4.44-0.04c-2.76-0.02-6.18-0.04-10.25-0.04c-2.83,0-5.42,0.01-7.76,0.04
			c-2.35,0.03-4.33,0.04-5.96,0.04c0.04-1.47,0.08-4.65,0.12-9.54s0.05-9.95,0.05-15.17c0-2.86-0.01-6.65-0.03-11.36
			c-0.02-4.71-0.07-9.59-0.13-14.63c1.58,0,3.56,0.01,5.93,0.04c2.37,0.03,4.81,0.04,7.33,0.04c4.25,0,7.71-0.01,10.38-0.04
			c2.67-0.02,4.12-0.04,4.34-0.04v5.28c-0.22,0-1.62-0.02-4.19-0.06s-5.77-0.06-9.6-0.06c-1.67,0-3.31,0.01-4.91,0.02
			c-1.6,0.01-2.87,0.02-3.81,0.02c0,2.86-0.02,5.72-0.07,8.57c-0.04,2.85-0.07,5.54-0.07,8.08c1,0,2.19,0.01,3.56,0.02
			c1.37,0.01,2.59,0.02,3.66,0.02c3.92,0,7.42-0.02,10.5-0.06c3.08-0.04,4.72-0.06,4.92-0.06v5.25c-0.18,0-2.01-0.02-5.51-0.06
			c-3.49-0.04-6.69-0.06-9.58-0.06c-1.07,0-2.34,0.01-3.82,0.02s-2.72,0.02-3.72,0.02c0,4.79,0.01,8.59,0.03,11.4
			c0.02,2.81,0.04,5.17,0.07,7.07c1.31,0.03,2.9,0.04,4.77,0.06c1.87,0.01,3.88,0.02,6.04,0.02c3.32,0,6.1-0.01,8.36-0.04
			c2.26-0.03,3.52-0.04,3.79-0.04V138.3z"/>
	</g>
</g>
<g>
	<g>
		<path class="st1" d="M325.97,113.35c0,4.45-0.96,8.36-2.89,11.72c-1.92,3.36-4.42,6.07-7.49,8.12c-2.67,1.8-5.64,3.16-8.92,4.1
			c-3.28,0.94-6.97,1.4-11.06,1.4c-1.56,0-3.08-0.03-4.57-0.08s-2.31-0.08-2.47-0.08c0-0.13,0.03-3.04,0.08-8.74
			c0.05-5.7,0.08-11.1,0.08-16.21c0-2.7-0.01-6.18-0.02-10.43c-0.01-4.25-0.06-9.4-0.15-15.47c0.22,0,1.24-0.01,3.05-0.04
			c1.81-0.02,2.79-0.04,2.92-0.04c4.6,0,8.69,0.47,12.26,1.4c3.57,0.94,6.75,2.41,9.56,4.44c3.25,2.35,5.66,5.18,7.24,8.48
			C325.18,105.21,325.97,109.02,325.97,113.35z M320.29,113.31c0-3.29-0.62-6.27-1.87-8.95c-1.24-2.68-3.21-4.98-5.9-6.9
			c-2.51-1.79-5.3-3.05-8.35-3.75c-3.06-0.71-5.83-1.06-8.32-1.06c-0.31,0-0.66,0-1.03,0c-0.38,0-0.61,0-0.7,0
			c-0.04,3.99-0.07,7.31-0.08,9.94c-0.01,2.63-0.02,4.73-0.02,6.3c0,1.11,0,3.71,0.02,7.79c0.01,4.08,0.03,9.74,0.05,16.97
			c0.31,0,0.59,0,0.85,0s0.54,0,0.85,0c2.89,0,5.79-0.38,8.7-1.16c2.91-0.77,5.37-1.84,7.37-3.2c2.53-1.72,4.57-3.9,6.12-6.54
			C319.52,120.09,320.29,116.95,320.29,113.31z"/>
	</g>
</g>
</svg>
