<?xml version="1.0" encoding="utf-8"?>
<!-- Generator: Adobe Illustrator 24.0.1, SVG Export Plug-In . SVG Version: 6.00 Build 0)  -->
<svg version="1.1" id="Layer_2_1_" xmlns="http://www.w3.org/2000/svg" xmlns:xlink="http://www.w3.org/1999/xlink" x="0px" y="0px"
	 viewBox="0 0 101.7 103.5" style="enable-background:new 0 0 101.7 103.5;" xml:space="preserve">
<style type="text/css">
	.st0{fill:#353535;}
	.st1{fill:#FFFFFF;}
</style>
<g>
	<polygon class="st0" points="57.5,52.1 52.1,56.7 57.5,62.8 	"/>
	<polygon class="st0" points="48.6,58 56.5,51.2 40.8,51.2 	"/>
	<polygon class="st0" points="39.7,62.8 45.1,56.7 39.7,52.1 	"/>
	<polygon class="st0" points="51.1,57.6 48.6,59.7 46.2,57.6 40.7,63.8 56.5,63.8 	"/>
	<path class="st1" d="M56.4,50h-2.8H43.6h-2.8c-1.3,0-2.3,1-2.3,2.3V55v5.1v2.8c0,1.3,1,2.3,2.3,2.3h2.8h10.1h2.8
		c1.3,0,2.3-1,2.3-2.3v-2.8V55v-2.8C58.8,51,57.7,50,56.4,50z M56.5,51.2L48.6,58l-7.8-6.8H56.5z M57.5,52.1v10.7l-5.4-6.2
		L57.5,52.1z M45.1,56.7l-5.4,6.1V52.1L45.1,56.7z M40.7,63.8l5.5-6.2l2.5,2.1l2.4-2.1l5.5,6.2H40.7z"/>
</g>
</svg>
